<svg xmlns="http://www.w3.org/2000/svg" xmlns:xlink="http://www.w3.org/1999/xlink" width="140" height="41" viewBox="0 0 140 41">
  <defs>
    <clipPath id="clip-path">
      <rect id="Rectangle_14" data-name="Rectangle 14" width="140" height="41" rx="5" transform="translate(0.16)" fill="#7e7e7e"/>
    </clipPath>
    <linearGradient id="linear-gradient" x1="-1.199" y1="2.436" x2="-1.199" y2="1.535" gradientUnits="objectBoundingBox">
      <stop offset="0" stop-color="#1a1a1a" stop-opacity="0.102"/>
      <stop offset="0.123" stop-color="#212121" stop-opacity="0.153"/>
      <stop offset="0.308" stop-color="#353535" stop-opacity="0.227"/>
      <stop offset="0.532" stop-color="#575757" stop-opacity="0.318"/>
      <stop offset="0.783" stop-color="#858585" stop-opacity="0.42"/>
      <stop offset="1" stop-color="#b3b3b3" stop-opacity="0.51"/>
    </linearGradient>
  </defs>
  <g id="Mask_Group_1" data-name="Mask Group 1" transform="translate(-0.16)" clip-path="url(#clip-path)">
    <g id="download-166" transform="translate(0.272 0)">
      <g id="Group_376" data-name="Group 376" transform="translate(0 0)">
        <path id="Path_28" data-name="Path 28" d="M139.753,37.594a3.961,3.961,0,0,1-3.965,3.96H6.019a3.966,3.966,0,0,1-3.971-3.96V6.013A3.971,3.971,0,0,1,6.019,2.048H135.786a3.965,3.965,0,0,1,3.965,3.965V37.594Z" transform="translate(-1.128 -1.127)" fill="#fff"/>
        <path id="Path_29" data-name="Path 29" d="M134.66,41.348H4.891A4.891,4.891,0,0,1,0,36.468V4.887A4.895,4.895,0,0,1,4.891,0H134.659a4.9,4.9,0,0,1,4.891,4.887v31.58a4.891,4.891,0,0,1-4.89,4.881Z" transform="translate(0 0)" fill="#a6a6a6"/>
        <path id="Path_30" data-name="Path 30" d="M139.753,37.594a3.961,3.961,0,0,1-3.965,3.96H6.019a3.966,3.966,0,0,1-3.971-3.96V6.013A3.971,3.971,0,0,1,6.019,2.048H135.786a3.965,3.965,0,0,1,3.965,3.965V37.594Z" transform="translate(-1.128 -1.127)"/>
        <path id="Path_31" data-name="Path 31" d="M47.367,28.331A5.994,5.994,0,0,1,50.223,23.3a6.141,6.141,0,0,0-4.836-2.614c-2.034-.214-4.008,1.217-5.044,1.217-1.057,0-2.653-1.2-4.373-1.161a6.439,6.439,0,0,0-5.42,3.3c-2.344,4.056-.6,10.017,1.65,13.3,1.123,1.607,2.436,3.4,4.154,3.336,1.681-.068,2.308-1.07,4.337-1.07,2.01,0,2.6,1.07,4.351,1.03,1.8-.028,2.939-1.613,4.023-3.233A13.253,13.253,0,0,0,50.9,33.66a5.8,5.8,0,0,1-3.537-5.329Zm-3.31-9.8A5.9,5.9,0,0,0,45.409,14.3a6.012,6.012,0,0,0-3.887,2.01,5.614,5.614,0,0,0-1.386,4.072,4.966,4.966,0,0,0,3.922-1.854Z" transform="translate(-16.207 -7.875)" fill="#fff"/>
        <path id="Path_32" data-name="Path 32" d="M214.47,0H144.962l27.225,41.348H214.47a4.895,4.895,0,0,0,4.891-4.885V4.887A4.9,4.9,0,0,0,214.47,0Z" transform="translate(-79.81 0)" fill="url(#linear-gradient)"/>
        <path id="Path_33" data-name="Path 33" d="M109.262,40.875h-2.349l-1.287-4.042h-4.472l-1.226,4.042H97.642l4.432-13.76h2.737l4.451,13.76Zm-4.023-5.738-1.164-3.593q-.185-.551-.694-2.592h-.041q-.2.878-.654,2.592l-1.144,3.593Zm15.4.655a5.618,5.618,0,0,1-1.376,4A4.034,4.034,0,0,1,116.2,41.1a3.063,3.063,0,0,1-2.834-1.407V44.9h-2.205V34.214q0-1.59-.082-3.261h1.939l.123,1.573h.041a3.923,3.923,0,0,1,6.279-.39,5.486,5.486,0,0,1,1.173,3.656Zm-2.246.081a4.09,4.09,0,0,0-.654-2.39,2.259,2.259,0,0,0-1.92-.979,2.293,2.293,0,0,0-1.48.541,2.508,2.508,0,0,0-.868,1.42,2.878,2.878,0,0,0-.1.671v1.655a2.654,2.654,0,0,0,.664,1.828,2.2,2.2,0,0,0,1.725.746,2.26,2.26,0,0,0,1.939-.96A4.222,4.222,0,0,0,118.39,35.873Zm13.662-.081a5.618,5.618,0,0,1-1.376,4,4.036,4.036,0,0,1-3.06,1.307,3.063,3.063,0,0,1-2.834-1.407V44.9h-2.205V34.214q0-1.59-.082-3.261h1.939l.123,1.573h.041a3.924,3.924,0,0,1,6.28-.39,5.491,5.491,0,0,1,1.173,3.656Zm-2.247.081a4.09,4.09,0,0,0-.655-2.39,2.256,2.256,0,0,0-1.918-.979,2.3,2.3,0,0,0-1.482.541,2.507,2.507,0,0,0-.867,1.42,2.945,2.945,0,0,0-.1.671v1.655a2.663,2.663,0,0,0,.663,1.828,2.209,2.209,0,0,0,1.727.746,2.258,2.258,0,0,0,1.939-.96A4.222,4.222,0,0,0,129.8,35.873Zm15.01,1.143a3.675,3.675,0,0,1-1.224,2.859,5.424,5.424,0,0,1-3.749,1.2,6.546,6.546,0,0,1-3.564-.857l.51-1.837a6.136,6.136,0,0,0,3.186.858,3.006,3.006,0,0,0,1.939-.561,1.834,1.834,0,0,0,.7-1.5,1.921,1.921,0,0,0-.573-1.409,5.312,5.312,0,0,0-1.9-1.061q-3.615-1.348-3.616-3.942a3.48,3.48,0,0,1,1.276-2.776,5.047,5.047,0,0,1,3.38-1.083,6.681,6.681,0,0,1,3.125.653l-.553,1.8a5.464,5.464,0,0,0-2.645-.633,2.69,2.69,0,0,0-1.824.572,1.636,1.636,0,0,0-.553,1.247,1.685,1.685,0,0,0,.634,1.347,7.143,7.143,0,0,0,2,1.061,6.781,6.781,0,0,1,2.614,1.673,3.486,3.486,0,0,1,.841,2.386Zm7.309-4.408h-2.431v4.817q0,1.838,1.287,1.836a3.874,3.874,0,0,0,.979-.1l.061,1.674a5,5,0,0,1-1.715.244,2.643,2.643,0,0,1-2.043-.8,3.909,3.909,0,0,1-.735-2.675v-5H146.08V30.949h1.448V29.132l2.166-.653v2.47h2.431Zm10.945,3.225a5.442,5.442,0,0,1-1.307,3.757,4.661,4.661,0,0,1-3.634,1.511,4.443,4.443,0,0,1-3.482-1.448,5.277,5.277,0,0,1-1.3-3.654,5.4,5.4,0,0,1,1.337-3.776,4.636,4.636,0,0,1,3.605-1.47A4.536,4.536,0,0,1,161.8,32.2a5.208,5.208,0,0,1,1.267,3.631Zm-2.286.051a4.442,4.442,0,0,0-.591-2.341,2.183,2.183,0,0,0-1.982-1.182,2.214,2.214,0,0,0-2.022,1.182,4.516,4.516,0,0,0-.592,2.382,4.429,4.429,0,0,0,.592,2.342,2.262,2.262,0,0,0,3.985-.02A4.46,4.46,0,0,0,160.783,35.883Zm9.456-2.991a3.838,3.838,0,0,0-.7-.061,2.081,2.081,0,0,0-1.8.879,3.31,3.31,0,0,0-.55,1.959v5.206h-2.205v-6.8q0-1.562-.064-3.124h1.921l.081,1.9h.061a3.4,3.4,0,0,1,1.1-1.573,2.667,2.667,0,0,1,1.594-.531,3.541,3.541,0,0,1,.551.04Zm9.862,2.553a5.169,5.169,0,0,1-.081,1h-6.615a2.877,2.877,0,0,0,.96,2.248,3.283,3.283,0,0,0,2.164.693,7.318,7.318,0,0,0,2.677-.468l.345,1.529a8.277,8.277,0,0,1-3.327.613A4.824,4.824,0,0,1,172.6,39.7a5.015,5.015,0,0,1-1.317-3.644,5.683,5.683,0,0,1,1.227-3.735,4.226,4.226,0,0,1,3.47-1.591,3.7,3.7,0,0,1,3.249,1.591,5.354,5.354,0,0,1,.875,3.121Zm-2.1-.572a2.984,2.984,0,0,0-.428-1.695,1.926,1.926,0,0,0-1.756-.92,2.091,2.091,0,0,0-1.755.9,3.293,3.293,0,0,0-.653,1.714l4.592,0ZM100.518,22.25a14.084,14.084,0,0,1-1.586-.081V15.517a12.007,12.007,0,0,1,1.867-.141c2.529,0,3.693,1.244,3.693,3.272C104.493,20.986,103.117,22.25,100.518,22.25Zm.37-6.021a4.425,4.425,0,0,0-.873.07v5.057a5.724,5.724,0,0,0,.732.03,2.4,2.4,0,0,0,2.6-2.709A2.207,2.207,0,0,0,100.888,16.229Zm7.234,6.072a2.321,2.321,0,0,1-2.349-2.508,2.375,2.375,0,0,1,2.43-2.579,2.3,2.3,0,0,1,2.349,2.5A2.389,2.389,0,0,1,108.122,22.3Zm.041-4.3c-.783,0-1.285.732-1.285,1.756,0,1,.512,1.736,1.274,1.736s1.274-.783,1.274-1.757c0-.993-.5-1.735-1.264-1.735Zm10.515-.692-1.526,4.876h-.994l-.632-2.118a16.051,16.051,0,0,1-.392-1.575h-.021a10.553,10.553,0,0,1-.391,1.575l-.672,2.118h-1l-1.436-4.876h1.114l.552,2.318q.2.828.331,1.565h.021c.08-.41.21-.923.4-1.555l.693-2.328h.883l.663,2.278c.16.552.291,1.094.392,1.606h.029a14.035,14.035,0,0,1,.331-1.606l.593-2.278h1.064Zm5.616,4.876h-1.084v-2.8c0-.862-.331-1.295-.984-1.295a1.126,1.126,0,0,0-1.084,1.194v2.9H120.06V18.707c0-.431-.01-.893-.04-1.395h.954l.051.753h.03a1.752,1.752,0,0,1,1.546-.852c1.024,0,1.7.783,1.7,2.057v2.92Zm2.989,0H126.2V15.076h1.085Zm3.952.111a2.322,2.322,0,0,1-2.349-2.508,2.375,2.375,0,0,1,2.428-2.579,2.3,2.3,0,0,1,2.349,2.5A2.389,2.389,0,0,1,131.236,22.3Zm.04-4.3c-.783,0-1.285.732-1.285,1.756,0,1,.513,1.736,1.273,1.736s1.274-.783,1.274-1.757C132.54,18.748,132.039,18.005,131.276,18.005Zm6.662,4.185-.079-.561h-.029a1.665,1.665,0,0,1-1.426.672,1.418,1.418,0,0,1-1.495-1.435c0-1.2,1.044-1.826,2.85-1.826v-.09c0-.642-.34-.964-1.013-.964a2.283,2.283,0,0,0-1.274.362l-.22-.712a3.118,3.118,0,0,1,1.674-.422c1.274,0,1.918.672,1.918,2.017v1.8a7.365,7.365,0,0,0,.07,1.164h-.977Zm-.149-2.429c-1.2,0-1.808.292-1.808.983a.691.691,0,0,0,.744.762,1.038,1.038,0,0,0,1.064-.993Zm6.319,2.429-.051-.783h-.03a1.635,1.635,0,0,1-1.566.893,2.222,2.222,0,0,1-2.047-2.489c0-1.525.9-2.6,2.136-2.6a1.466,1.466,0,0,1,1.376.663h.022v-2.8h1.085v5.8c0,.472.011.913.04,1.314h-.965Zm-.16-2.869a1.18,1.18,0,0,0-1.142-1.265c-.8,0-1.295.712-1.295,1.715,0,.983.51,1.656,1.273,1.656a1.217,1.217,0,0,0,1.164-1.295v-.813Zm7.964,2.98a2.321,2.321,0,0,1-2.348-2.508,2.375,2.375,0,0,1,2.428-2.579,2.3,2.3,0,0,1,2.349,2.5,2.388,2.388,0,0,1-2.429,2.588Zm.04-4.3c-.782,0-1.284.732-1.284,1.756,0,1,.512,1.736,1.273,1.736s1.274-.783,1.274-1.757C153.218,18.748,152.717,18.005,151.952,18.005Zm8.218,4.185h-1.085v-2.8c0-.862-.331-1.295-.984-1.295a1.125,1.125,0,0,0-1.083,1.194v2.9h-1.085V18.707c0-.431-.01-.893-.04-1.395h.954l.051.753h.03a1.751,1.751,0,0,1,1.545-.853c1.024,0,1.7.783,1.7,2.057Zm7.293-4.064h-1.193v2.368c0,.6.209.9.631.9a2.136,2.136,0,0,0,.481-.051l.03.823a2.4,2.4,0,0,1-.841.121c-.854,0-1.365-.472-1.365-1.706V18.126h-.712v-.813h.712V16.42l1.064-.322v1.214h1.193v.814ZM173.2,22.19h-1.083V19.411c0-.873-.33-1.314-.984-1.314a1.063,1.063,0,0,0-1.085,1.154v2.94h-1.083V15.076h1.083v2.929h.022a1.644,1.644,0,0,1,1.467-.793c1.032,0,1.663.8,1.663,2.077Zm5.879-2.178h-3.253a1.4,1.4,0,0,0,1.537,1.444,3.664,3.664,0,0,0,1.315-.231l.169.753a4.073,4.073,0,0,1-1.636.3,2.264,2.264,0,0,1-2.428-2.458,2.382,2.382,0,0,1,2.306-2.619,2.048,2.048,0,0,1,2.028,2.318,2.088,2.088,0,0,1-.037.491Zm-.994-.772c0-.753-.38-1.284-1.073-1.284a1.286,1.286,0,0,0-1.185,1.284h2.258Z" transform="translate(-53.758 -8.3)" fill="#fff"/>
      </g>
    </g>
  </g>
</svg>
