<svg xmlns="http://www.w3.org/2000/svg" xmlns:xlink="http://www.w3.org/1999/xlink" width="141" height="41" viewBox="0 0 141 41">
  <defs>
    <clipPath id="clip-path">
      <rect id="Rectangle_15" data-name="Rectangle 15" width="141" height="41" rx="5" transform="translate(-0.367)" fill="#7e7e7e"/>
    </clipPath>
    <linearGradient id="linear-gradient" x1="0.908" y1="1.032" x2="-0.383" y2="0.36" gradientUnits="objectBoundingBox">
      <stop offset="0" stop-color="#00a0ff"/>
      <stop offset="0.007" stop-color="#00a1ff"/>
      <stop offset="0.26" stop-color="#00beff"/>
      <stop offset="0.512" stop-color="#00d2ff"/>
      <stop offset="0.76" stop-color="#00dfff"/>
      <stop offset="1" stop-color="#00e3ff"/>
    </linearGradient>
    <linearGradient id="linear-gradient-2" x1="1.077" y1="0.729" x2="-1.307" y2="0.729" gradientUnits="objectBoundingBox">
      <stop offset="0" stop-color="#ffe000"/>
      <stop offset="0.409" stop-color="#ffbd00"/>
      <stop offset="0.775" stop-color="orange"/>
      <stop offset="1" stop-color="#ff9c00"/>
    </linearGradient>
    <linearGradient id="linear-gradient-3" x1="0.864" y1="-0.023" x2="-0.499" y2="-1.789" gradientUnits="objectBoundingBox">
      <stop offset="0" stop-color="#ff3a44"/>
      <stop offset="1" stop-color="#c31162"/>
    </linearGradient>
    <linearGradient id="linear-gradient-4" x1="-0.186" y1="2.701" x2="0.423" y2="1.909" gradientUnits="objectBoundingBox">
      <stop offset="0" stop-color="#32a071"/>
      <stop offset="0.069" stop-color="#2da771"/>
      <stop offset="0.476" stop-color="#15cf74"/>
      <stop offset="0.801" stop-color="#06e775"/>
      <stop offset="1" stop-color="#00f076"/>
    </linearGradient>
  </defs>
  <g id="Mask_Group_2" data-name="Mask Group 2" transform="translate(0.367)" clip-path="url(#clip-path)">
    <g id="google-168" transform="translate(0.397 0)">
      <path id="Path_34" data-name="Path 34" d="M134.382,41.348H5.169A5.118,5.118,0,0,1,0,36.18V5.169A5.118,5.118,0,0,1,5.169,0H134.382a5.118,5.118,0,0,1,5.169,5.169V36.18A5.118,5.118,0,0,1,134.382,41.348Z"/>
      <path id="Path_35" data-name="Path 35" d="M134.382.827a4.368,4.368,0,0,1,4.342,4.342V36.18a4.368,4.368,0,0,1-4.342,4.342H5.169A4.368,4.368,0,0,1,.827,36.18V5.169A4.368,4.368,0,0,1,5.169.827H134.382m0-.827H5.169A5.184,5.184,0,0,0,0,5.169V36.18a5.118,5.118,0,0,0,5.169,5.169H134.382a5.118,5.118,0,0,0,5.169-5.169V5.169A5.184,5.184,0,0,0,134.382,0Z" fill="#a6a6a6"/>
      <path id="Path_36" data-name="Path 36" d="M122.44,44.188A4.349,4.349,0,0,0,118,48.633a4.412,4.412,0,0,0,4.445,4.445,4.349,4.349,0,0,0,4.445-4.445A4.289,4.289,0,0,0,122.44,44.188Zm0,7.029a2.7,2.7,0,0,1,0-5.375,2.5,2.5,0,0,1,2.481,2.688A2.566,2.566,0,0,1,122.44,51.218Zm-9.614-7.029a4.349,4.349,0,0,0-4.445,4.445,4.412,4.412,0,0,0,4.445,4.445,4.349,4.349,0,0,0,4.445-4.445A4.289,4.289,0,0,0,112.827,44.188Zm0,7.029a2.7,2.7,0,0,1,0-5.375,2.5,2.5,0,0,1,2.481,2.688A2.566,2.566,0,0,1,112.827,51.218Zm-11.474-5.685v1.861H105.8a3.909,3.909,0,0,1-1.034,2.378,4.575,4.575,0,0,1-3.411,1.344,4.813,4.813,0,0,1-4.858-4.962,4.876,4.876,0,0,1,4.858-4.962,5.125,5.125,0,0,1,3.411,1.344l1.344-1.344a6.624,6.624,0,0,0-4.652-1.861,6.823,6.823,0,1,0,0,13.645,5.949,5.949,0,0,0,4.755-1.964,6.223,6.223,0,0,0,1.654-4.342,3.876,3.876,0,0,0-.1-1.137Zm46.93,1.447a4.016,4.016,0,0,0-3.721-2.791,4.163,4.163,0,0,0-4.135,4.445,4.326,4.326,0,0,0,4.342,4.445,4.24,4.24,0,0,0,3.618-1.964l-1.447-1.034a2.52,2.52,0,0,1-2.171,1.24,2.243,2.243,0,0,1-2.171-1.344L148.49,47.5Zm-6,1.447a2.511,2.511,0,0,1,2.274-2.584,1.828,1.828,0,0,1,1.654.93l-3.928,1.654Zm-4.858,4.238h1.964V39.743h-1.964Zm-3.1-7.546a3.4,3.4,0,0,0-2.378-1.034,4.442,4.442,0,0,0-4.238,4.445,4.28,4.28,0,0,0,4.238,4.342,2.968,2.968,0,0,0,2.274-1.034h.1v.62a2.35,2.35,0,0,1-4.548,1.034l-1.654.724a4.265,4.265,0,0,0,3.928,2.584c2.274,0,4.135-1.344,4.135-4.548V44.4h-1.861Zm-2.274,6.1a2.7,2.7,0,0,1,0-5.375,2.708,2.708,0,0,1,0,5.375Zm25.223-11.474h-4.652V52.665h1.964V47.806h2.688a4.037,4.037,0,1,0,0-8.063Zm.1,6.2h-2.791V41.5h2.791a2.271,2.271,0,0,1,2.274,2.171A2.366,2.366,0,0,1,157.38,45.946Zm11.888-1.861a3.475,3.475,0,0,0-3.411,1.964l1.757.724a1.826,1.826,0,0,1,1.757-.93,1.943,1.943,0,0,1,2.067,1.654v.1a4.1,4.1,0,0,0-1.964-.517c-1.861,0-3.721,1.034-3.721,2.894a3.028,3.028,0,0,0,3.2,2.894,2.909,2.909,0,0,0,2.481-1.24h.1v1.034H173.4V47.7a3.912,3.912,0,0,0-4.135-3.618Zm-.207,7.133c-.62,0-1.551-.31-1.551-1.137,0-1.034,1.137-1.344,2.067-1.344a4,4,0,0,1,1.757.413A2.407,2.407,0,0,1,169.061,51.218ZM179.915,44.4l-2.171,5.582h-.1L175.366,44.4H173.3l3.411,7.856-1.964,4.342h1.964l5.272-12.2Zm-17.366,8.27h1.964V39.743h-1.964Z" transform="translate(-52.044 -21.654)" fill="#fff"/>
      <path id="Path_37" data-name="Path 37" d="M23.413,17.25A2.021,2.021,0,0,0,23,18.7V41.542a2.045,2.045,0,0,0,.517,1.447l.1.1L36.438,30.275v-.207Z" transform="translate(-12.663 -9.497)" fill="url(#linear-gradient)"/>
      <path id="Path_38" data-name="Path 38" d="M56.908,45.127,52.67,40.888v-.31l4.238-4.238.1.1,5.065,2.894c1.447.827,1.447,2.171,0,3Z" transform="translate(-28.998 -20.007)" fill="url(#linear-gradient-2)"/>
      <path id="Path_39" data-name="Path 39" d="M41.183,50.342,36.841,46,23.92,58.921c.517.517,1.24.517,2.171.1l15.092-8.683" transform="translate(-13.169 -25.326)" fill="url(#linear-gradient-3)"/>
      <path id="Path_40" data-name="Path 40" d="M41.183,25.414l-15.092-8.58a1.675,1.675,0,0,0-2.171.1L36.841,29.755Z" transform="translate(-13.169 -9.081)" fill="url(#linear-gradient-4)"/>
      <path id="Path_41" data-name="Path 41" d="M41.08,55.43,26.091,63.906a1.69,1.69,0,0,1-2.067,0l-.1.1.1.1a1.69,1.69,0,0,0,2.067,0Z" transform="translate(-13.169 -30.518)" opacity="0.2"/>
      <path id="Path_42" data-name="Path 42" d="M23.413,58.715A2.021,2.021,0,0,1,23,57.267v.1a2.045,2.045,0,0,0,.517,1.447v-.1h-.1ZM45.742,47.344l-5.169,2.894.1.1,5.065-2.894A1.718,1.718,0,0,0,46.775,46C46.775,46.517,46.362,46.93,45.742,47.344Z" transform="translate(-12.663 -25.326)" opacity="0.12"/>
      <path id="Path_43" data-name="Path 43" d="M25.584,16.907,45.742,28.381c.62.413,1.034.827,1.034,1.344a1.718,1.718,0,0,0-1.034-1.447L25.584,16.8C24.137,15.976,23,16.6,23,18.25v.1C23,16.8,24.137,16.08,25.584,16.907Z" transform="translate(-12.663 -9.05)" fill="#fff" opacity="0.25"/>
      <path id="Path_44" data-name="Path 44" d="M99.549,21.349a3.2,3.2,0,0,1-5.479-2.274,3.2,3.2,0,1,1,5.479,2.274Zm-3.928-.517a2.439,2.439,0,0,0,1.654.724,2.057,2.057,0,0,0,1.654-.724,2.494,2.494,0,0,0,.724-1.757,2.129,2.129,0,0,0-.724-1.757,2.439,2.439,0,0,0-1.654-.724,2.057,2.057,0,0,0-1.654.724,2.494,2.494,0,0,0-.724,1.757A2.129,2.129,0,0,0,95.621,20.832Zm6,1.344v-6.2h.93l3,4.858V15.973h.827v6.2h-.827l-3.1-5.065v5.065Zm8.27,0h-.827V16.7H107.3v-.724h4.238V16.7h-1.757v5.479Zm2.791,0v-6.2h1.861a3.218,3.218,0,0,1,2.274.827,2.961,2.961,0,0,1,.827,2.274,3.406,3.406,0,0,1-.827,2.274,2.961,2.961,0,0,1-2.274.827Zm.724-.724h1.137a2.182,2.182,0,0,0,1.654-.62,2.432,2.432,0,0,0,.62-1.757,2.432,2.432,0,0,0-.62-1.757,2.348,2.348,0,0,0-1.654-.62H113.4Zm8.993-4.755H119.6v1.964h2.584v.724H119.6v1.964h2.791v.827h-3.618v-6.2h3.618Zm5.892-.724-2.274,2.688,2.481,3.515h-.93l-2.067-2.894-.93,1.137v1.757h-.827v-6.2h.827v3.2l2.688-3.2Zm3,6.2v-6.2h.827v2.688h3.1V15.973h.827v6.2h-.827V19.385h-3.1v2.791ZM141.1,16.7h-2.791v1.964H140.9v.724h-2.584v1.964H141.1v.827h-3.618v-6.2H141.1Zm3.308,5.479h-.827V16.7h-1.757v-.724h4.238V16.7h-1.757v5.479Zm9.82-.827a3.2,3.2,0,0,1-5.479-2.274,3.2,3.2,0,1,1,5.479,2.274Zm-3.928-.517a2.439,2.439,0,0,0,1.654.724,2.057,2.057,0,0,0,1.654-.724,2.494,2.494,0,0,0,.724-1.757,2.129,2.129,0,0,0-.724-1.757,2.439,2.439,0,0,0-1.654-.724,2.057,2.057,0,0,0-1.654.724,2.494,2.494,0,0,0-.724,1.757A2.129,2.129,0,0,0,150.3,20.832Zm6.719,1.344H156.2v-6.2h2.067a2.177,2.177,0,0,1,1.344.517,1.667,1.667,0,0,1,.62,1.344,1.82,1.82,0,0,1-.62,1.344,2.177,2.177,0,0,1-1.344.517H156.92v2.481Zm0-3.308h1.344a1.174,1.174,0,0,0,.827-.31,1,1,0,0,0,0-1.447,1.174,1.174,0,0,0-.827-.31h-1.344Z" transform="translate(-51.791 -8.737)" fill="#fff" stroke="#fff" stroke-miterlimit="10" stroke-width="0.46"/>
    </g>
  </g>
</svg>
